<svg width="25" height="29" viewBox="0 0 25 29" fill="none" xmlns="http://www.w3.org/2000/svg">
<path d="M2.48036 5.77868V16.1863C2.48036 21.8521 6.96736 26.4441 12.5016 26.4441C18.0358 26.4441 22.5228 21.8521 22.5228 16.1863V5.78428L12.4414 2.39208L2.48036 5.77868ZM12.4386 0.367676L24.4016 4.39128V16.1863C24.4016 22.9133 19.0732 28.3677 12.5016 28.3677C5.92996 28.3677 0.601562 22.9133 0.601562 16.1863V4.39128L12.4386 0.367676ZM18.6252 9.44668C18.5338 9.36273 18.4264 9.29805 18.3095 9.2565C18.1926 9.21495 18.0685 9.19737 17.9446 9.20482C17.8208 9.21226 17.6997 9.24458 17.5886 9.29985C17.4775 9.35511 17.3786 9.43219 17.298 9.52647L11.2556 16.4831L7.35236 12.1641C7.26984 12.0716 7.16956 11.9967 7.05749 11.9438C6.94543 11.8909 6.82387 11.8611 6.70004 11.8561C6.57621 11.8512 6.45265 11.8712 6.33671 11.9149C6.22077 11.9587 6.11482 12.0253 6.02516 12.1109C5.8416 12.2863 5.73354 12.5263 5.72387 12.7801C5.7142 13.0338 5.80368 13.2814 5.97336 13.4703L10.5794 18.5663C10.6671 18.6649 10.7749 18.7436 10.8956 18.797C11.0163 18.8505 11.1471 18.8774 11.279 18.8761C11.411 18.8748 11.5412 18.8452 11.6608 18.7893C11.7804 18.7335 11.8866 18.6526 11.9724 18.5523L18.7022 10.8047C18.8682 10.6127 18.9531 10.3635 18.9387 10.1101C18.9243 9.85661 18.8119 9.61868 18.6252 9.44668Z" fill="#545454"/>
</svg>
