<svg width="80" height="80" viewBox="0 0 80 80" fill="none" xmlns="http://www.w3.org/2000/svg">
<path d="M42.5 28C42.5 27.337 42.2366 26.7011 41.7678 26.2322C41.2989 25.7634 40.663 25.5 40 25.5C39.337 25.5 38.7011 25.7634 38.2322 26.2322C37.7634 26.7011 37.5 27.337 37.5 28V42.5H22.5C21.837 42.5 21.2011 42.7634 20.7322 43.2322C20.2634 43.7011 20 44.337 20 45C20 45.663 20.2634 46.2989 20.7322 46.7678C21.2011 47.2366 21.837 47.5 22.5 47.5H40C40.663 47.5 41.2989 47.2366 41.7678 46.7678C42.2366 46.2989 42.5 45.663 42.5 45V28Z" fill="#FF828B"/>
<path d="M32.5004 5C32.5004 4.33696 32.7638 3.70107 33.2326 3.23223C33.7015 2.76339 34.3374 2.5 35.0004 2.5H45.0004C45.6634 2.5 46.2993 2.76339 46.7682 3.23223C47.237 3.70107 47.5004 4.33696 47.5004 5C47.5004 5.66304 47.237 6.29893 46.7682 6.76777C46.2993 7.23661 45.6634 7.5 45.0004 7.5V10.35C51.8004 11.33 57.9704 14.25 62.9204 18.55C62.9401 18.5281 62.9601 18.5064 62.9804 18.485L64.7504 16.715L62.9804 14.95C62.511 14.4812 62.247 13.8452 62.2465 13.1818C62.246 12.5184 62.5091 11.8819 62.9779 11.4125C63.4467 10.9431 64.0827 10.6791 64.7461 10.6786C65.4095 10.6781 66.046 10.9412 66.5154 11.41L73.5854 18.485C73.8242 18.7156 74.0146 18.9915 74.1457 19.2965C74.2767 19.6015 74.3456 19.9295 74.3485 20.2615C74.3514 20.5934 74.2882 20.9226 74.1625 21.2299C74.0368 21.5371 73.8511 21.8163 73.6164 22.051C73.3817 22.2857 73.1025 22.4714 72.7953 22.5971C72.4881 22.7228 72.1589 22.786 71.8269 22.7831C71.4949 22.7802 71.1669 22.7113 70.8619 22.5803C70.5569 22.4492 70.281 22.2588 70.0504 22.02L68.2854 20.25L66.5154 22.02C66.4941 22.0404 66.4724 22.0604 66.4504 22.08C71.5413 27.9568 74.5304 35.3614 74.9461 43.1255C75.3618 50.8895 73.1803 58.571 68.746 64.9577C64.3117 71.3445 57.877 76.0728 50.4572 78.3967C43.0374 80.7206 35.0551 80.5077 27.7697 77.7917C20.4843 75.0756 14.3108 70.0109 10.2232 63.3969C6.13559 56.7829 4.36669 48.9961 5.19561 41.2652C6.02454 33.5344 9.40408 26.2996 14.801 20.7025C20.1979 15.1055 27.3048 11.4648 35.0004 10.355V7.5C34.3374 7.5 33.7015 7.23661 33.2326 6.76777C32.7638 6.29893 32.5004 5.66304 32.5004 5ZM40.0004 15C36.0607 15.0003 32.1597 15.7766 28.5201 17.2846C24.8804 18.7925 21.5735 21.0026 18.7879 23.7886C13.1623 29.4151 10.0022 37.046 10.0029 45.0025C10.0036 52.959 13.1649 60.5893 18.7915 66.215C24.418 71.8406 32.0489 75.0007 40.0054 75C47.9619 74.9993 55.5923 71.838 61.2179 66.2114C66.8435 60.5849 70.0036 52.954 70.0029 44.9975C70.0022 37.041 66.8409 29.4107 61.2143 23.785C55.5878 18.1594 47.9569 14.9993 40.0004 15Z" fill="#FF828B"/>
</svg>
