<svg width="80" height="80" viewBox="0 0 80 80" fill="none" xmlns="http://www.w3.org/2000/svg">
<path d="M73.7042 21.5601L48.7042 7.81006C48.3351 7.60698 47.9206 7.50049 47.4992 7.50049C47.0779 7.50049 46.6634 7.60698 46.2942 7.81006L21.2942 21.5601C20.9023 21.7759 20.5754 22.0929 20.3477 22.4781C20.1201 22.8634 20 23.3026 20 23.7501C20 24.1975 20.1201 24.6368 20.3477 25.022C20.5754 25.4072 20.9023 25.7243 21.2942 25.9401L44.9992 38.9776V65.7751L37.4092 61.6001L34.9992 65.9776L46.2942 72.1901C46.6632 72.3936 47.0778 72.5003 47.4992 72.5003C47.9206 72.5003 48.3352 72.3936 48.7042 72.1901L73.7042 58.4401C74.0963 58.2243 74.4234 57.9073 74.6511 57.5221C74.8789 57.1369 74.9991 56.6976 74.9992 56.2501V23.7501C74.9991 23.3025 74.8789 22.8632 74.6511 22.478C74.4234 22.0928 74.0963 21.7758 73.7042 21.5601ZM47.4992 12.8551L67.3117 23.7501L47.4992 34.6451L27.6867 23.7501L47.4992 12.8551ZM69.9992 54.7726L49.9992 65.7726V38.9751L69.9992 27.9751V54.7726Z" fill="#FF828B"/>
<path d="M25 40H5V35H25V40ZM30 60H10V55H30V60ZM35 50H15V45H35V50Z" fill="#FF828B"/>
</svg>
