<svg width="80" height="80" viewBox="0 0 80 80" fill="none" xmlns="http://www.w3.org/2000/svg">
<path d="M74.8 41.525L67.3 24.025C67.1086 23.5731 66.7885 23.1876 66.3795 22.9164C65.9705 22.6452 65.4907 22.5004 65 22.5H57.5V17.5C57.5 16.837 57.2366 16.2011 56.7678 15.7322C56.2989 15.2634 55.663 15 55 15H7.5C6.83696 15 6.20107 15.2634 5.73223 15.7322C5.26339 16.2011 5 16.837 5 17.5V60C5 60.663 5.26339 61.2989 5.73223 61.7678C6.20107 62.2366 6.83696 62.5 7.5 62.5H12.85C13.4257 64.6184 14.6825 66.4885 16.4265 67.8218C18.1705 69.1551 20.3047 69.8775 22.5 69.8775C24.6953 69.8775 26.8295 69.1551 28.5735 67.8218C30.3175 66.4885 31.5743 64.6184 32.15 62.5H47.85C48.4257 64.6184 49.6825 66.4885 51.4265 67.8218C53.1705 69.1551 55.3047 69.8775 57.5 69.8775C59.6953 69.8775 61.8295 69.1551 63.5735 67.8218C65.3175 66.4885 66.5743 64.6184 67.15 62.5H72.5C73.163 62.5 73.7989 62.2366 74.2678 61.7678C74.7366 61.2989 75 60.663 75 60V42.5C74.9994 42.1649 74.9313 41.8333 74.8 41.525ZM57.5 27.5H63.35L68.7 40H57.5V27.5ZM22.5 65C21.5111 65 20.5444 64.7068 19.7221 64.1573C18.8999 63.6079 18.259 62.827 17.8806 61.9134C17.5022 60.9998 17.4031 59.9945 17.5961 59.0245C17.789 58.0546 18.2652 57.1637 18.9645 56.4645C19.6637 55.7652 20.5546 55.289 21.5245 55.0961C22.4945 54.9031 23.4998 55.0022 24.4134 55.3806C25.327 55.759 26.1079 56.3999 26.6573 57.2221C27.2068 58.0444 27.5 59.0111 27.5 60C27.5 61.3261 26.9732 62.5979 26.0355 63.5355C25.0979 64.4732 23.8261 65 22.5 65ZM47.85 57.5H32.15C31.5743 55.3816 30.3175 53.5115 28.5735 52.1782C26.8295 50.8449 24.6953 50.1225 22.5 50.1225C20.3047 50.1225 18.1705 50.8449 16.4265 52.1782C14.6825 53.5115 13.4257 55.3816 12.85 57.5H10V20H52.5V51.4C51.3616 52.0607 50.3648 52.9397 49.5669 53.9864C48.7689 55.0332 48.1855 56.2272 47.85 57.5ZM57.5 65C56.5111 65 55.5444 64.7068 54.7221 64.1573C53.8999 63.6079 53.259 62.827 52.8806 61.9134C52.5022 60.9998 52.4031 59.9945 52.5961 59.0245C52.789 58.0546 53.2652 57.1637 53.9645 56.4645C54.6637 55.7652 55.5546 55.289 56.5245 55.0961C57.4945 54.9031 58.4998 55.0022 59.4134 55.3806C60.327 55.759 61.1079 56.3999 61.6573 57.2221C62.2068 58.0444 62.5 59.0111 62.5 60C62.5 61.3261 61.9732 62.5979 61.0355 63.5355C60.0979 64.4732 58.8261 65 57.5 65ZM70 57.5H67.15C66.5972 55.3588 65.3502 53.4613 63.6041 52.1042C61.858 50.7472 59.7114 50.0072 57.5 50V45H70V57.5Z" fill="#FF828B"/>
</svg>
