<svg width="36" height="36" viewBox="0 0 36 36" fill="none" xmlns="http://www.w3.org/2000/svg">
<path d="M17.9987 34.6667C20.1878 34.6695 22.3559 34.2397 24.3784 33.4019C26.4009 32.5642 28.2378 31.335 29.7837 29.785C31.3337 28.2391 32.5629 26.4021 33.4006 24.3797C34.2384 22.3572 34.6682 20.1891 34.6654 18C34.6682 15.8109 34.2383 13.6428 33.4006 11.6204C32.5628 9.59789 31.3337 7.76092 29.7837 6.21499C28.2378 4.66502 26.4009 3.43583 24.3784 2.59806C22.3559 1.7603 20.1878 1.33049 17.9987 1.33333C15.8096 1.33054 13.6415 1.76037 11.6191 2.59813C9.59661 3.43589 7.75963 4.66505 6.21371 6.21499C4.66377 7.76092 3.43461 9.59789 2.59685 11.6204C1.75909 13.6428 1.32925 15.8109 1.33205 18C1.32921 20.1891 1.75902 22.3572 2.59678 24.3797C3.43454 26.4021 4.66373 28.2391 6.21371 29.785C7.75963 31.3349 9.59661 32.5641 11.6191 33.4019C13.6415 34.2396 15.8096 34.6695 17.9987 34.6667V34.6667Z" stroke="#FD3B4A" stroke-width="2.33333" stroke-linejoin="round"/>
<path fill-rule="evenodd" clip-rule="evenodd" d="M17.9974 28.8333C18.5499 28.8333 19.0798 28.6138 19.4705 28.2231C19.8612 27.8324 20.0807 27.3025 20.0807 26.75C20.0807 26.1974 19.8612 25.6675 19.4705 25.2768C19.0798 24.8861 18.5499 24.6666 17.9974 24.6666C17.4449 24.6666 16.915 24.8861 16.5243 25.2768C16.1336 25.6675 15.9141 26.1974 15.9141 26.75C15.9141 27.3025 16.1336 27.8324 16.5243 28.2231C16.915 28.6138 17.4449 28.8333 17.9974 28.8333Z" fill="#FD3B4A"/>
<path d="M18 8V21.3333" stroke="#FD3B4A" stroke-width="2.33333" stroke-linecap="round" stroke-linejoin="round"/>
</svg>
